<!DOCTYPE svg PUBLIC "-//W3C//DTD SVG 20010904//EN" "http://www.w3.org/TR/2001/REC-SVG-20010904/DTD/svg10.dtd">
<svg version="1.0" xmlns="http://www.w3.org/2000/svg" width="654px" height="231px" viewBox="0 0 6540 2310" preserveAspectRatio="xMidYMid meet">
<g id="layer1" fill="#fedf79" stroke="none">
 <path d="M1006 1691 c-4 -5 -2 -12 3 -15 5 -4 12 -2 15 3 4 5 2 12 -3 15 -5 4 -12 2 -15 -3z"/>
 <path d="M1946 1431 c-4 -5 -2 -12 3 -15 5 -4 12 -2 15 3 4 5 2 12 -3 15 -5 4 -12 2 -15 -3z"/>
 </g>
<g id="layer2" fill="#3d3723" stroke="none">
 <path d="M2206 1881 c-4 -5 -2 -12 3 -15 5 -4 12 -2 15 3 4 5 2 12 -3 15 -5 4 -12 2 -15 -3z"/>
 <path d="M3646 1181 c-4 -5 -2 -12 3 -15 5 -4 12 -2 15 3 4 5 2 12 -3 15 -5 4 -12 2 -15 -3z"/>
 <path d="M4365 1181 c-7 -12 12 -24 25 -16 11 7 4 25 -10 25 -5 0 -11 -4 -15 -9z"/>
 <path d="M4696 1181 c-4 -5 -2 -12 3 -15 5 -4 12 -2 15 3 4 5 2 12 -3 15 -5 4 -12 2 -15 -3z"/>
 <path d="M1605 720 c-4 -6 -3 -16 3 -22 6 -6 12 -6 17 2 4 6 3 16 -3 22 -6 6 -12 6 -17 -2z"/>
 <path d="M1635 640 c-8 -12 16 -64 30 -65 19 0 15 54 -5 65 -12 7 -21 7 -25 0z"/>
 <path d="M1681 506 c-7 -8 -8 -17 -3 -20 6 -3 15 1 21 8 7 8 8 17 3 20 -6 3 -15 -1 -21 -8z"/>
 </g>
<g id="layer3" fill="#fee17f" stroke="none">
 <path d="M4046 2011 c-4 -5 -2 -12 3 -15 5 -4 12 -2 15 3 4 5 2 12 -3 15 -5 4 -12 2 -15 -3z"/>
 <path d="M4096 2011 c-4 -5 -2 -12 3 -15 5 -4 12 -2 15 3 4 5 2 12 -3 15 -5 4 -12 2 -15 -3z"/>
 <path d="M3876 1891 c-4 -5 -2 -12 3 -15 5 -4 12 -2 15 3 4 5 2 12 -3 15 -5 4 -12 2 -15 -3z"/>
 <path d="M1196 1872 c-3 -6 1 -15 8 -21 8 -7 17 -8 20 -3 3 6 -1 15 -8 21 -8 7 -17 8 -20 3z"/>
 <path d="M3386 1871 c-4 -5 -2 -12 3 -15 5 -4 12 -2 15 3 4 5 2 12 -3 15 -5 4 -12 2 -15 -3z"/>
 <path d="M645 1840 c-8 -13 20 -24 41 -16 20 8 9 26 -16 26 -10 0 -22 -5 -25 -10z"/>
 <path d="M996 1711 c-4 -5 -2 -12 3 -15 5 -4 12 -2 15 3 4 5 2 12 -3 15 -5 4 -12 2 -15 -3z"/>
 <path d="M3856 1691 c-4 -5 -2 -12 3 -15 5 -4 12 -2 15 3 4 5 2 12 -3 15 -5 4 -12 2 -15 -3z"/>
 <path d="M1017 1673 c-4 -6 0 -18 7 -28 8 -11 16 -14 19 -8 4 6 0 18 -7 28 -8 11 -16 14 -19 8z"/>
 <path d="M3816 1581 c-4 -5 -2 -12 3 -15 5 -4 12 -2 15 3 4 5 2 12 -3 15 -5 4 -12 2 -15 -3z"/>
 <path d="M1045 1570 c-4 -6 -3 -16 3 -22 6 -6 12 -6 17 2 4 6 3 16 -3 22 -6 6 -12 6 -17 -2z"/>
 <path d="M1326 1511 c-4 -5 -2 -12 3 -15 5 -4 12 -2 15 3 4 5 2 12 -3 15 -5 4 -12 2 -15 -3z"/>
 <path d="M3726 1481 c-4 -5 -2 -12 3 -15 5 -4 12 -2 15 3 4 5 2 12 -3 15 -5 4 -12 2 -15 -3z"/>
 <path d="M3776 1471 c-4 -5 -2 -12 3 -15 5 -4 12 -2 15 3 4 5 2 12 -3 15 -5 4 -12 2 -15 -3z"/>
 <path d="M2035 1451 c-6 -11 1 -15 18 -12 5 1 6 -3 3 -8 -4 -5 -2 -12 3 -15 19 -12 20 12 2 28 -13 11 -21 14 -26 7z"/>
 <path d="M4306 1441 c-4 -5 -2 -12 3 -15 5 -4 12 -2 15 3 4 5 2 12 -3 15 -5 4 -12 2 -15 -3z"/>
 <path d="M1354 1429 c-8 -14 10 -16 128 -15 72 1 118 5 118 11 0 11 -239 15 -246 4z"/>
 <path d="M1635 1430 c-8 -12 20 -24 35 -15 6 3 8 11 5 16 -8 12 -32 12 -40 -1z"/>
 <path d="M1695 1430 c-3 -6 0 -12 7 -15 22 -8 98 0 98 10 0 13 -97 17 -105 5z"/>
 <path d="M1845 1430 c-3 -5 0 -12 7 -15 19 -8 73 0 76 10 4 13 -75 18 -83 5z"/>
 <path d="M2026 1421 c-4 -5 -2 -12 3 -15 5 -4 12 -2 15 3 4 5 2 12 -3 15 -5 4 -12 2 -15 -3z"/>
 <path d="M4276 1381 c-4 -5 -2 -12 3 -15 5 -4 12 -2 15 3 4 5 2 12 -3 15 -5 4 -12 2 -15 -3z"/>
 <path d="M4396 1201 c-4 -5 -2 -12 3 -15 5 -4 12 -2 15 3 4 5 2 12 -3 15 -5 4 -12 2 -15 -3z"/>
 <path d="M237 773 c-4 -6 0 -18 7 -28 8 -11 16 -14 19 -8 4 6 0 18 -7 28 -8 11 -16 14 -19 8z"/>
 <path d="M266 721 c-4 -5 -2 -12 3 -15 5 -4 12 -2 15 3 4 5 2 12 -3 15 -5 4 -12 2 -15 -3z"/>
 <path d="M1006 691 c-4 -5 -2 -12 3 -15 5 -4 12 -2 15 3 4 5 2 12 -3 15 -5 4 -12 2 -15 -3z"/>
 <path d="M1656 611 c-4 -5 -2 -12 3 -15 5 -4 12 -2 15 3 4 5 2 12 -3 15 -5 4 -12 2 -15 -3z"/>
 <path d="M1715 500 c-4 -6 -13 -9 -20 -8 -8 2 -15 -1 -17 -6 -2 -5 7 -10 20 -11 25 -2 49 19 33 29 -5 4 -13 2 -16 -4z"/>
 <path d="M3145 500 c-4 -6 -3 -16 3 -22 6 -6 12 -6 17 2 4 6 3 16 -3 22 -6 6 -12 6 -17 -2z"/>
 <path d="M2151 476 c-7 -8 -8 -17 -3 -20 6 -3 15 1 21 8 7 8 8 17 3 20 -6 3 -15 -1 -21 -8z"/>
 <path d="M515 471 c-7 -12 12 -24 25 -16 11 7 4 25 -10 25 -5 0 -11 -4 -15 -9z"/>
 <path d="M575 460 c-3 -5 0 -13 9 -16 21 -8 61 -1 61 11 0 14 -62 19 -70 5z"/>
 </g>
<g id="layer4" fill="#fef1c2" stroke="none">
 <path d="M5046 2201 c-4 -5 -2 -12 3 -15 5 -4 12 -2 15 3 4 5 2 12 -3 15 -5 4 -12 2 -15 -3z"/>
 <path d="M5596 2201 c-4 -5 -2 -12 3 -15 5 -4 12 -2 15 3 4 5 2 12 -3 15 -5 4 -12 2 -15 -3z"/>
 <path d="M5236 2131 c-4 -5 -2 -12 3 -15 5 -4 12 -2 15 3 4 5 2 12 -3 15 -5 4 -12 2 -15 -3z"/>
 <path d="M5236 2051 c-4 -5 -2 -12 3 -15 5 -4 12 -2 15 3 4 5 2 12 -3 15 -5 4 -12 2 -15 -3z"/>
 <path d="M5266 1931 c-4 -5 -2 -12 3 -15 5 -4 12 -2 15 3 4 5 2 12 -3 15 -5 4 -12 2 -15 -3z"/>
 <path d="M5316 1911 c-4 -5 -2 -12 3 -15 5 -4 12 -2 15 3 4 5 2 12 -3 15 -5 4 -12 2 -15 -3z"/>
 <path d="M2654 1898 c-4 -6 1 -17 10 -23 18 -14 496 -1323 496 -1360 0 -11 -5 -26 -12 -33 -9 -9 -9 -16 4 -28 24 -24 38 -8 38 44 0 35 -37 148 -149 457 -81 226 -190 526 -241 667 -71 197 -98 261 -116 273 -17 11 -25 12 -30 3z"/>
 <path d="M1196 1891 c-4 -6 0 -21 8 -33 8 -13 40 -95 72 -183 59 -167 68 -185 83 -170 5 6 -18 82 -55 185 -61 166 -93 226 -108 201z"/>
 <path d="M2216 1892 c-3 -6 -4 -17 -1 -25 8 -20 -135 -407 -150 -407 -7 0 -18 -7 -25 -15 -10 -12 -9 -16 3 -21 17 -6 24 15 -187 -562 -69 -189 -126 -346 -126 -348 0 -3 -8 -4 -17 -2 -10 2 -22 -7 -30 -22 -10 -21 -10 -27 2 -40 34 -33 59 20 221 460 85 234 200 544 255 690 96 258 98 265 80 283 -11 12 -21 15 -25 9z"/>
 <path d="M3387 1894 c-3 -4 1 -16 9 -28 12 -19 14 -122 12 -707 -2 -513 -6 -684 -15 -684 -20 0 -24 -12 -8 -25 13 -11 19 -10 35 5 20 18 20 33 20 707 0 617 -2 691 -16 713 -17 25 -26 30 -37 19z"/>
 <path d="M550 1827 c-122 -35 -237 -134 -289 -249 -52 -115 -66 -201 -66 -418 0 -213 14 -313 60 -415 25 -58 111 -159 127 -149 5 3 -7 23 -26 44 -20 22 -46 61 -60 88 -49 97 -58 152 -63 389 -6 268 5 343 70 473 49 98 109 154 204 190 78 31 205 32 281 2 71 -27 78 -8 8 24 -68 31 -179 40 -246 21z"/>
 <path d="M926 1792 c-3 -5 13 -26 35 -48 66 -64 108 -159 80 -181 -14 -10 -14 -13 3 -32 26 -28 39 -14 39 41 0 47 -20 93 -65 149 -35 43 -85 82 -92 71z"/>
 <path d="M2621 1728 c-19 -51 -420 -1147 -437 -1196 -12 -34 -23 -51 -32 -47 -15 6 -37 -44 -24 -57 5 -5 20 0 34 12 28 21 31 28 152 360 41 113 131 358 200 546 68 187 128 352 131 366 8 33 -12 47 -24 16z"/>
 <path d="M5066 1621 c-4 -5 -2 -12 3 -15 5 -4 12 -2 15 3 4 5 2 12 -3 15 -5 4 -12 2 -15 -3z"/>
 <path d="M3766 1591 c-4 -5 -2 -12 3 -15 5 -4 12 -2 15 3 4 5 2 12 -3 15 -5 4 -12 2 -15 -3z"/>
 <path d="M5157 1573 c-4 -6 0 -18 7 -28 8 -11 16 -14 19 -8 4 6 0 18 -7 28 -8 11 -16 14 -19 8z"/>
 <path d="M5136 1491 c-4 -5 -2 -12 3 -15 5 -4 12 -2 15 3 4 5 2 12 -3 15 -5 4 -12 2 -15 -3z"/>
 <path d="M1375 1430 c-6 -9 249 -732 276 -782 7 -12 14 -17 20 -11 6 6 -41 151 -124 379 l-133 369 263 5 c357 7 356 24 -1 28 -166 1 -274 6 -282 13 -8 7 -14 7 -19 -1z"/>
 <path d="M4346 1331 c-4 -5 -2 -12 3 -15 5 -4 12 -2 15 3 4 5 2 12 -3 15 -5 4 -12 2 -15 -3z"/>
 <path d="M1006 711 c-4 -6 -1 -19 5 -29 18 -28 -23 -106 -73 -143 -80 -58 -140 -73 -283 -74 -119 0 -135 2 -192 27 -74 31 -93 20 -29 -17 146 -86 401 -61 526 52 60 54 92 112 88 156 -3 32 -29 49 -42 28z"/>
 </g>
<g id="layer5" fill="#fce698" stroke="none">
 <path d="M4726 2201 c-4 -5 -2 -12 3 -15 5 -4 12 -2 15 3 4 5 2 12 -3 15 -5 4 -12 2 -15 -3z"/>
 <path d="M4986 2201 c-4 -5 -2 -12 3 -15 5 -4 12 -2 15 3 4 5 2 12 -3 15 -5 4 -12 2 -15 -3z"/>
 <path d="M5036 2201 c-4 -5 -2 -12 3 -15 5 -4 12 -2 15 3 4 5 2 12 -3 15 -5 4 -12 2 -15 -3z"/>
 <path d="M5106 2191 c-4 -5 -2 -12 3 -15 5 -4 12 -2 15 3 4 5 2 12 -3 15 -5 4 -12 2 -15 -3z"/>
 <path d="M5566 2181 c-4 -5 -2 -12 3 -15 5 -4 12 -2 15 3 4 5 2 12 -3 15 -5 4 -12 2 -15 -3z"/>
 <path d="M5036 2151 c-4 -5 -2 -12 3 -15 5 -4 12 -2 15 3 4 5 2 12 -3 15 -5 4 -12 2 -15 -3z"/>
 <path d="M5666 2151 c-4 -5 -2 -12 3 -15 5 -4 12 -2 15 3 4 5 2 12 -3 15 -5 4 -12 2 -15 -3z"/>
 <path d="M6006 2151 c-4 -5 -2 -12 3 -15 5 -4 12 -2 15 3 4 5 2 12 -3 15 -5 4 -12 2 -15 -3z"/>
 <path d="M6054 2148 c-6 -9 -4 -10 26 -11 11 -1 19 3 18 8 -4 12 -37 14 -44 3z"/>
 <path d="M6146 2151 c-4 -5 -2 -12 3 -15 5 -4 12 -2 15 3 4 5 2 12 -3 15 -5 4 -12 2 -15 -3z"/>
 <path d="M6235 2151 c-7 -12 12 -24 25 -16 11 7 4 25 -10 25 -5 0 -11 -4 -15 -9z"/>
 <path d="M6346 2151 c-4 -5 -2 -12 3 -15 5 -4 12 -2 15 3 4 5 2 12 -3 15 -5 4 -12 2 -15 -3z"/>
 <path d="M5256 2111 c-4 -5 -2 -12 3 -15 5 -4 12 -2 15 3 4 5 2 12 -3 15 -5 4 -12 2 -15 -3z"/>
 <path d="M4066 2091 c-4 -5 -2 -12 4 -16 6 -4 8 -10 5 -15 -3 -5 -1 -11 4 -14 5 -4 12 -2 15 3 4 5 2 12 -4 16 -6 4 -8 10 -5 15 3 5 1 11 -4 14 -5 4 -12 2 -15 -3z"/>
 <path d="M3946 2081 c-4 -5 -2 -12 3 -15 5 -4 12 -2 15 3 4 5 2 12 -3 15 -5 4 -12 2 -15 -3z"/>
 <path d="M5276 2081 c-4 -5 -2 -12 3 -15 5 -4 12 -2 15 3 4 5 2 12 -3 15 -5 4 -12 2 -15 -3z"/>
 <path d="M5246 2031 c-4 -5 -2 -12 3 -15 5 -4 12 -2 15 3 4 5 2 12 -3 15 -5 4 -12 2 -15 -3z"/>
 <path d="M4066 1961 c-4 -5 -2 -12 3 -15 5 -4 12 -2 15 3 4 5 2 12 -3 15 -5 4 -12 2 -15 -3z"/>
 <path d="M5316 1961 c-4 -5 -2 -12 3 -15 5 -4 12 -2 15 3 4 5 2 12 -3 15 -5 4 -12 2 -15 -3z"/>
 <path d="M4116 1951 c-4 -5 -2 -12 3 -15 5 -4 12 -2 15 3 4 5 2 12 -3 15 -5 4 -12 2 -15 -3z"/>
 <path d="M5268 1943 c-8 -14 -3 -38 7 -41 12 -3 16 36 4 43 -4 3 -9 2 -11 -2z"/>
 <path d="M4136 1901 c-4 -5 -2 -12 3 -15 5 -4 12 -2 15 3 4 5 2 12 -3 15 -5 4 -12 2 -15 -3z"/>
 <path d="M2666 1882 c-3 -6 -2 -13 3 -17 5 -3 9 -13 9 -23 -1 -9 58 -181 131 -382 278 -766 321 -888 321 -917 0 -16 6 -35 13 -42 6 -6 12 -16 12 -22 0 -5 3 -9 8 -9 7 0 8 3 6 18 -1 4 0 21 0 37 1 17 -69 225 -159 475 -89 245 -195 540 -237 655 -72 204 -93 249 -107 227z"/>
 <path d="M3387 1884 c-4 -4 -7 -313 -8 -688 0 -375 -1 -692 -2 -706 -2 -19 3 -25 18 -25 20 0 20 8 23 701 2 579 0 703 -11 713 -8 6 -17 8 -20 5z"/>
 <path d="M2192 1867 c-20 -27 -150 -404 -148 -432 1 -19 -4 -30 -13 -30 -15 0 -54 -103 -227 -586 -95 -268 -117 -350 -91 -349 4 0 6 2 5 3 -2 2 4 12 12 22 26 31 348 919 338 932 -6 7 -3 15 7 21 17 9 168 398 162 416 -5 14 -35 16 -45 3z"/>
 <path d="M1198 1865 c-7 -7 113 -337 131 -358 33 -41 24 5 -33 163 -58 157 -83 209 -98 195z"/>
 <path d="M3869 1866 c-1 -3 -2 -9 -3 -13 -1 -5 -5 -13 -9 -20 -4 -6 -3 -14 3 -18 5 -3 11 -4 11 -1 1 3 2 9 3 14 1 4 5 12 9 19 4 6 3 14 -3 18 -5 3 -11 4 -11 1z"/>
 <path d="M500 1841 c-52 -17 -111 -52 -104 -63 5 -7 2 -9 -9 -5 -16 6 -42 -15 -30 -26 10 -10 -19 -38 -33 -33 -16 6 -65 -62 -100 -138 -43 -94 -54 -173 -54 -396 0 -228 16 -331 66 -416 34 -57 47 -48 23 16 -38 101 -51 221 -46 425 3 133 10 208 21 250 26 95 81 200 129 248 56 56 155 105 232 115 33 4 60 12 60 17 0 12 -120 17 -155 6z"/>
 <path d="M685 1840 c-7 -12 32 -33 45 -25 6 4 8 10 5 14 -7 13 -44 20 -50 11z"/>
 <path d="M3906 1831 c-4 -5 -2 -12 3 -15 5 -4 12 -2 15 3 4 5 2 12 -3 15 -5 4 -12 2 -15 -3z"/>
 <path d="M5290 1821 c-6 -12 -6 -22 -1 -26 6 -3 15 3 21 14 6 12 6 22 1 26 -6 3 -15 -3 -21 -14z"/>
 <path d="M2605 1788 c-3 -7 -68 -186 -146 -398 -349 -954 -334 -909 -310 -924 5 -3 15 1 22 10 8 9 118 300 245 647 163 445 230 637 224 651 -9 24 -28 32 -35 14z"/>
 <path d="M3839 1786 c-1 -3 -2 -9 -3 -13 -1 -5 -5 -13 -9 -20 -4 -6 -3 -14 3 -18 5 -3 11 -4 11 -1 1 3 2 9 3 14 1 4 5 12 9 19 4 6 3 14 -3 18 -5 3 -11 4 -11 1z"/>
 <path d="M5256 1761 c-4 -5 -2 -12 3 -15 5 -4 12 -2 15 3 4 5 2 12 -3 15 -5 4 -12 2 -15 -3z"/>
 <path d="M1018 1684 c-3 -5 -4 -16 -3 -24 2 -8 5 -30 8 -49 7 -42 22 -60 39 -43 9 9 9 21 0 49 -13 45 -37 80 -44 67z"/>
 <path d="M3799 1676 c-1 -3 -2 -9 -3 -13 -1 -5 -5 -13 -9 -20 -4 -6 -3 -14 3 -18 5 -3 11 -4 11 -1 1 3 2 9 3 14 1 4 5 12 9 19 4 6 3 14 -3 18 -5 3 -11 4 -11 1z"/>
 <path d="M4726 1661 c-4 -5 -2 -12 3 -15 5 -4 12 -2 15 3 4 5 2 12 -3 15 -5 4 -12 2 -15 -3z"/>
 <path d="M4176 1651 c-4 -5 -2 -12 3 -15 5 -4 12 -2 15 3 4 5 2 12 -3 15 -5 4 -12 2 -15 -3z"/>
 <path d="M3826 1611 c-4 -5 -2 -12 3 -15 5 -4 12 -2 15 3 4 5 2 12 -3 15 -5 4 -12 2 -15 -3z"/>
 <path d="M4246 1601 c-4 -5 -2 -12 3 -15 5 -4 12 -2 15 3 4 5 2 12 -3 15 -5 4 -12 2 -15 -3z"/>
 <path d="M5177 1533 c-4 -6 0 -18 7 -28 8 -11 16 -14 19 -8 4 6 0 18 -7 28 -8 11 -16 14 -19 8z"/>
 <path d="M5216 1451 c-4 -5 -2 -12 3 -15 5 -4 12 -2 15 3 4 5 2 12 -3 15 -5 4 -12 2 -15 -3z"/>
 <path d="M1396 1431 c-4 -5 -2 -12 3 -15 5 -4 12 -2 15 3 4 5 2 12 -3 15 -5 4 -12 2 -15 -3z"/>
 <path d="M1454 1428 c-6 -9 -4 -10 26 -11 11 -1 19 3 18 8 -4 12 -37 14 -44 3z"/>
 <path d="M1556 1431 c-4 -5 -2 -12 3 -15 5 -4 12 -2 15 3 4 5 2 12 -3 15 -5 4 -12 2 -15 -3z"/>
 <path d="M1595 1430 c-8 -13 20 -24 41 -16 8 3 12 10 9 16 -8 13 -42 13 -50 0z"/>
 <path d="M1665 1430 c-8 -12 20 -24 35 -15 6 3 8 11 5 16 -8 12 -32 12 -40 -1z"/>
 <path d="M1744 1428 c-7 -10 7 -14 56 -13 25 0 46 5 47 10 3 11 -96 14 -103 3z"/>
 <path d="M1895 1430 c-3 -5 -2 -11 2 -13 14 -8 53 -2 56 8 3 12 -51 17 -58 5z"/>
 <path d="M1358 1424 c-3 -5 21 -81 53 -169 32 -88 98 -268 145 -400 47 -132 90 -244 95 -249 5 -6 11 -3 15 7 7 19 -262 770 -287 800 -9 11 -18 16 -21 11z"/>
 <path d="M3706 1421 c-4 -5 -2 -12 3 -15 5 -4 12 -2 15 3 4 5 2 12 -3 15 -5 4 -12 2 -15 -3z"/>
 <path d="M4316 1411 c-4 -5 -2 -12 3 -15 5 -4 12 -2 15 3 4 5 2 12 -3 15 -5 4 -12 2 -15 -3z"/>
 <path d="M3689 1376 c-1 -3 -2 -9 -3 -13 -1 -5 -5 -13 -9 -20 -4 -6 -3 -14 3 -18 5 -3 11 -4 11 -1 1 3 2 9 3 14 1 4 5 12 9 19 4 6 3 14 -3 18 -5 3 -11 4 -11 1z"/>
 <path d="M3736 1361 c-4 -5 -2 -12 3 -15 5 -4 12 -2 15 3 4 5 2 12 -3 15 -5 4 -12 2 -15 -3z"/>
 <path d="M5206 1361 c-4 -5 -2 -12 3 -15 5 -4 12 -2 15 3 4 5 2 12 -3 15 -5 4 -12 2 -15 -3z"/>
 <path d="M4356 1301 c-4 -5 -2 -12 3 -15 5 -4 12 -2 15 3 4 5 2 12 -3 15 -5 4 -12 2 -15 -3z"/>
 <path d="M5306 1281 c-4 -5 -2 -12 3 -15 5 -4 12 -2 15 3 4 5 2 12 -3 15 -5 4 -12 2 -15 -3z"/>
 <path d="M3646 1261 c-4 -5 -2 -12 3 -15 5 -4 12 -2 15 3 4 5 2 12 -3 15 -5 4 -12 2 -15 -3z"/>
 <path d="M5326 1241 c-4 -5 -2 -12 3 -15 5 -4 12 -2 15 3 4 5 2 12 -3 15 -5 4 -12 2 -15 -3z"/>
 <path d="M5276 1231 c-4 -5 -2 -12 3 -15 5 -4 12 -2 15 3 4 5 2 12 -3 15 -5 4 -12 2 -15 -3z"/>
 <path d="M3625 1190 c-3 -5 -2 -11 2 -13 14 -8 53 -2 56 8 3 12 -51 17 -58 5z"/>
 <path d="M4345 1190 c-4 -6 0 -12 7 -14 22 -8 58 -2 58 9 0 13 -57 17 -65 5z"/>
 <path d="M4675 1191 c-7 -13 17 -24 40 -19 9 1 16 8 16 13 0 14 -48 19 -56 6z"/>
 <path d="M5305 1190 c-7 -11 35 -31 48 -23 11 6 -12 33 -29 33 -7 0 -16 -5 -19 -10z"/>
 <path d="M5945 1190 c-3 -5 -2 -11 2 -13 14 -8 53 -2 56 8 3 12 -51 17 -58 5z"/>
 <path d="M286 691 c-4 -5 -2 -12 3 -15 5 -4 12 -2 15 3 4 5 2 12 -3 15 -5 4 -12 2 -15 -3z"/>
 <path d="M984 649 c-31 -75 -129 -137 -266 -165 -78 -16 -102 -29 -74 -40 51 -20 214 23 291 76 70 48 125 159 82 165 -13 3 -22 -8 -33 -36z"/>
 <path d="M475 480 c-3 -5 -4 -11 -1 -11 17 -4 26 -7 29 -9 1 -1 11 -3 22 -5 11 -1 27 -6 36 -9 10 -4 20 -3 24 3 7 13 -15 23 -54 25 -14 1 -31 5 -38 9 -6 4 -14 3 -18 -3z"/>
 </g>
<g id="layer6" fill="#fae7a5" stroke="none">
 <path d="M3998 2193 c-9 -10 -44 -95 -78 -188 -72 -199 -194 -531 -255 -695 -38 -100 -41 -117 -28 -127 35 -28 56 -1 106 141 l49 136 227 0 227 0 34 -97 c51 -149 66 -180 89 -186 38 -10 47 18 23 76 -12 29 -69 183 -128 342 -58 160 -120 326 -136 370 -16 44 -39 107 -50 140 -11 33 -30 70 -42 83 -21 22 -23 22 -38 5z m33 -150 c6 -16 35 -95 64 -178 30 -82 67 -188 84 -235 17 -47 31 -88 31 -92 0 -5 -88 -8 -195 -8 -107 0 -195 2 -195 4 0 2 30 84 66 182 36 99 80 218 97 267 17 48 32 87 34 87 2 0 8 -12 14 -27z"/>
 <path d="M4674 2197 c-2 -7 -3 -237 -2 -512 l3 -500 30 0 30 0 3 228 2 228 158 -3 157 -3 121 -224 c102 -191 125 -226 148 -232 41 -11 43 13 9 79 -16 31 -68 132 -116 223 -48 92 -87 169 -87 172 0 3 20 15 43 25 170 75 215 312 85 443 -70 70 -155 88 -411 88 -122 0 -169 -3 -173 -12z m407 -67 c88 -17 135 -45 159 -96 32 -64 31 -145 0 -209 -44 -89 -126 -115 -363 -115 l-137 0 0 215 0 215 144 0 c79 0 167 -5 197 -10z"/>
 <path d="M5585 2188 l-28 -22 24 -18 c14 -12 36 -19 58 -18 20 1 96 2 169 1 l132 -1 0 -470 c0 -439 1 -470 18 -479 11 -6 24 -6 35 0 16 9 17 46 17 482 l0 472 169 -2 c156 -2 171 -1 193 17 l23 20 -25 20 c-24 19 -41 20 -391 20 -361 0 -367 0 -394 -22z"/>
 <path d="M1206 1871 c-4 -5 -2 -12 3 -15 5 -4 12 -2 15 3 4 5 2 12 -3 15 -5 4 -12 2 -15 -3z"/>
 <path d="M2202 1867 c-18 -21 -152 -398 -146 -409 3 -5 -1 -15 -10 -21 -13 -11 -167 -421 -286 -767 -24 -69 -50 -133 -58 -142 -14 -16 -10 -22 11 -19 4 0 7 -4 7 -9 0 -6 -9 -10 -19 -10 -28 0 -35 -17 -13 -29 15 -8 23 -6 36 8 9 10 13 21 9 24 -3 4 2 16 12 27 10 11 15 20 10 20 -4 0 -2 7 5 15 7 8 10 15 6 15 -4 0 1 11 10 25 9 14 13 25 9 25 -4 0 -2 7 5 15 7 8 9 15 5 15 -4 0 -2 6 4 13 6 8 8 17 4 20 -3 4 2 16 12 27 10 11 15 20 10 20 -4 0 -2 7 5 15 7 8 10 15 6 15 -4 0 0 10 8 23 8 12 15 25 16 30 0 4 1 9 1 12 1 3 3 10 4 15 1 6 3 11 4 13 2 1 4 15 6 31 2 15 12 37 21 47 9 10 14 19 9 19 -4 0 -2 6 4 13 6 8 8 17 4 20 -3 4 2 16 12 27 10 11 15 20 10 20 -4 0 -2 7 5 15 7 8 9 15 5 15 -4 0 -2 6 4 13 6 8 8 17 4 20 -3 4 2 16 12 27 10 11 15 20 10 20 -4 0 -2 6 4 13 6 8 8 17 4 20 -3 4 1 15 10 24 8 10 16 21 16 26 1 4 2 9 2 12 1 3 3 10 4 15 1 6 3 11 4 13 2 1 4 15 6 31 2 15 12 37 21 47 9 10 14 19 9 19 -4 0 -2 6 4 13 6 8 8 17 4 20 -3 4 0 15 9 24 8 10 14 25 13 33 0 8 4 18 10 22 5 4 11 12 11 18 1 5 3 12 4 15 1 3 3 8 4 13 1 4 7 17 14 30 7 12 10 22 6 22 -3 0 -1 7 6 15 7 8 9 15 5 15 -4 0 -2 6 4 13 6 8 8 17 4 20 -3 4 2 16 12 27 10 11 15 20 10 20 -4 0 -2 6 4 13 6 8 8 17 4 20 -3 4 1 15 10 24 8 10 16 21 16 26 1 4 1 8 2 10 0 1 2 11 3 22 2 11 7 32 10 46 8 30 -6 46 -22 26z"/>
 <path d="M2667 1874 c-3 -4 -2 -16 4 -26 8 -15 14 -17 22 -9 8 8 7 15 -4 26 -8 9 -18 13 -22 9z"/>
 <path d="M569 1858 c-11 -39 0 -54 28 -39 10 5 26 12 36 15 28 9 10 26 -29 26 -19 0 -34 -1 -35 -2z"/>
 <path d="M3374 1846 c-2 -6 -3 -306 -2 -666 2 -518 6 -654 16 -653 14 3 16 -13 2 -22 -5 -3 -8 -16 -6 -28 3 -12 5 -24 5 -26 1 -2 10 4 21 14 20 18 20 28 18 703 l-3 685 -23 2 c-13 1 -26 -3 -28 -9z"/>
 <path d="M459 1817 c-76 -32 -124 -70 -170 -139 -48 -70 -73 -126 -90 -202 -7 -31 -15 -59 -19 -61 -7 -4 7 -111 16 -127 13 -21 25 8 19 47 -4 28 -2 46 5 50 6 4 9 14 6 22 -4 9 -1 22 5 29 6 7 8 18 5 23 -4 5 -2 12 3 16 6 3 8 12 4 20 -3 9 1 23 8 31 8 9 14 22 15 28 0 6 2 18 2 27 1 8 12 26 25 39 12 14 23 28 23 32 1 5 2 13 3 19 0 5 5 8 9 5 5 -3 24 10 42 29 19 19 30 35 25 35 -5 0 1 7 13 16 12 8 26 13 31 9 6 -3 14 3 20 12 5 10 13 15 17 11 3 -4 16 -2 28 4 11 7 24 13 29 14 4 1 10 2 13 3 8 1 -16 31 -25 31 -3 0 -31 -11 -62 -23z"/>
 <path d="M696 1831 c-4 -5 -2 -12 3 -15 5 -4 12 -2 15 3 4 5 2 12 -3 15 -5 4 -12 2 -15 -3z"/>
 <path d="M746 1821 c-4 -5 -2 -12 3 -15 5 -4 12 -2 15 3 4 5 2 12 -3 15 -5 4 -12 2 -15 -3z"/>
 <path d="M1227 1824 c-4 -4 -3 -12 1 -18 4 -6 7 -14 8 -18 1 -5 3 -10 4 -13 1 -3 3 -9 4 -15 0 -5 4 -10 9 -10 4 0 10 0 13 0 4 0 1 7 -6 15 -7 8 -9 15 -5 15 4 0 1 7 -6 17 -8 9 -12 18 -11 20 6 8 -4 13 -11 7z"/>
 <path d="M2707 1804 c-4 -4 -3 -12 1 -18 4 -6 7 -14 8 -18 1 -5 3 -10 4 -13 1 -3 4 -9 5 -15 1 -5 4 -12 5 -15 1 -3 3 -9 4 -15 0 -5 4 -10 9 -10 7 0 8 4 6 15 -1 3 -3 10 -4 15 -1 6 -4 12 -5 15 -1 3 -4 10 -5 15 -1 6 -4 12 -5 15 -1 3 -3 9 -4 14 -2 14 -12 22 -19 15z"/>
 <path d="M2605 1768 c-3 -7 -101 -276 -219 -598 -117 -322 -219 -602 -227 -623 -10 -28 -10 -42 -3 -55 12 -18 28 -19 30 -2 1 6 3 12 4 15 1 3 3 8 4 13 1 4 7 17 14 30 7 12 10 22 6 22 -3 0 0 7 7 17 8 9 13 18 12 20 -2 1 -3 4 -2 6 0 1 2 15 4 31 2 15 12 37 21 47 9 10 14 19 9 19 -4 0 -2 6 4 13 6 8 8 17 4 20 -3 4 2 16 12 27 10 11 15 20 10 20 -4 0 -2 7 5 15 7 8 9 15 5 15 -4 0 -2 6 4 13 6 8 8 17 4 20 -3 4 2 16 12 27 10 11 15 20 10 20 -4 0 -2 6 4 13 6 8 8 17 4 20 -3 4 2 16 12 27 10 11 15 20 10 20 -4 0 -2 7 5 15 7 8 9 15 5 15 -4 0 -2 6 4 13 6 8 8 17 4 20 -3 4 2 16 12 27 10 11 15 20 10 20 -4 0 -2 7 5 15 7 8 9 15 5 15 -4 0 -2 6 4 13 6 8 8 17 4 20 -3 4 1 15 10 24 8 10 16 21 16 26 1 4 1 8 2 10 0 1 2 15 4 31 2 15 12 37 21 47 9 10 14 19 9 19 -4 0 -2 6 4 13 6 8 8 17 4 20 -3 4 2 16 12 27 10 11 15 20 10 20 -4 0 -2 7 5 15 7 8 9 15 5 15 -4 0 -2 6 4 13 6 8 8 17 4 20 -3 4 2 16 12 27 10 11 15 20 10 20 -4 0 -2 7 5 15 7 8 9 15 5 15 -4 0 -2 6 4 13 6 8 8 17 4 20 -3 4 2 16 12 27 10 11 15 20 10 20 -4 0 -2 6 4 13 6 8 8 17 4 20 -3 4 2 16 12 27 10 11 15 20 10 20 -4 0 -2 7 5 15 7 8 9 15 4 15 -4 0 -3 5 4 12 7 7 8 17 1 30 -11 21 -28 24 -34 6z"/>
 <path d="M1267 1714 c-4 -4 -3 -12 1 -18 4 -6 7 -14 8 -18 1 -5 3 -10 4 -13 1 -3 3 -9 4 -15 0 -5 4 -10 9 -10 4 0 10 0 13 0 4 0 1 7 -6 15 -7 8 -9 15 -5 15 4 0 1 7 -6 17 -8 9 -12 18 -11 20 6 8 -4 13 -11 7z"/>
 <path d="M1006 1701 c-4 -5 -2 -12 3 -15 5 -4 12 -2 15 3 4 5 2 12 -3 15 -5 4 -12 2 -15 -3z"/>
 <path d="M2757 1664 c-4 -4 -3 -12 1 -18 4 -6 7 -14 8 -18 1 -5 3 -10 4 -13 1 -3 3 -9 4 -15 0 -5 4 -10 9 -10 4 0 10 0 13 0 4 0 1 7 -6 15 -7 8 -9 15 -5 15 4 0 1 7 -6 17 -8 9 -12 18 -11 20 6 8 -4 13 -11 7z"/>
 <path d="M1037 1618 c-14 -7 -15 -13 -7 -23 6 -7 10 -17 9 -21 -3 -20 2 -24 21 -14 11 6 18 15 15 21 -4 5 -11 6 -17 3 -6 -4 -6 1 1 14 13 25 3 34 -22 20z"/>
 <path d="M1316 1571 c-4 -5 -2 -12 4 -16 6 -4 8 -10 5 -15 -3 -5 -1 -11 4 -14 5 -4 12 -2 15 3 4 5 2 12 -4 16 -6 4 -8 10 -5 15 3 5 1 11 -4 14 -5 4 -12 2 -15 -3z"/>
 <path d="M2797 1553 c-4 -3 -2 -12 4 -20 6 -7 8 -13 4 -13 -4 0 -2 -7 5 -15 7 -8 9 -15 5 -15 -4 0 -2 -7 5 -15 7 -8 9 -15 6 -15 -4 0 -1 -10 6 -22 7 -13 13 -26 14 -30 1 -5 3 -10 4 -13 1 -3 3 -9 4 -15 0 -5 4 -10 9 -10 4 0 10 0 13 0 4 0 1 7 -6 15 -7 8 -9 15 -5 15 4 0 2 7 -5 15 -7 8 -9 15 -6 15 4 0 1 10 -6 23 -7 12 -13 25 -14 30 -1 4 -3 9 -4 12 -1 3 -4 10 -5 15 -1 6 -4 12 -5 15 -1 3 -3 9 -4 14 -2 14 -12 22 -19 14z"/>
 <path d="M1364 1428 c-3 -4 0 -17 6 -28 8 -16 15 -19 24 -11 8 7 114 12 284 13 173 2 272 7 272 13 0 12 -579 24 -586 13z"/>
 <path d="M1397 1354 c-4 -4 -3 -12 1 -18 4 -6 7 -14 8 -18 1 -5 3 -10 4 -13 1 -3 3 -9 4 -15 0 -5 4 -10 9 -10 4 0 10 0 13 0 4 0 1 7 -6 15 -7 8 -9 15 -5 15 4 0 1 7 -6 17 -8 9 -12 18 -11 20 6 8 -4 13 -11 7z"/>
 <path d="M2887 1304 c-4 -4 -3 -12 1 -18 4 -6 7 -14 8 -18 1 -5 3 -10 4 -13 1 -3 3 -9 4 -15 0 -5 4 -10 9 -10 4 0 10 0 13 0 4 0 1 7 -6 15 -7 8 -9 15 -5 15 4 0 1 7 -6 17 -8 9 -12 18 -11 20 6 8 -4 13 -11 7z"/>
 <path d="M1437 1243 c-4 -3 -2 -12 4 -20 6 -7 8 -13 4 -13 -4 0 -2 -7 5 -15 7 -8 9 -15 5 -15 -4 0 -2 -7 5 -15 7 -8 9 -15 6 -15 -4 0 -1 -10 6 -22 7 -13 13 -26 14 -30 1 -5 3 -10 4 -13 1 -3 3 -9 4 -15 0 -5 4 -10 9 -10 4 0 10 0 13 0 4 0 1 7 -6 15 -7 8 -9 15 -5 15 4 0 2 7 -5 15 -7 8 -9 15 -6 15 4 0 1 10 -6 23 -7 12 -13 25 -14 30 -1 4 -3 9 -4 12 -1 3 -4 10 -5 15 -1 6 -4 12 -5 15 -1 3 -3 9 -4 14 -2 14 -12 22 -19 14z"/>
 <path d="M2927 1194 c-4 -4 -3 -12 1 -18 4 -6 7 -14 8 -18 1 -5 3 -10 4 -13 1 -3 3 -9 4 -15 0 -5 4 -10 9 -10 4 0 10 0 13 0 4 0 1 7 -6 15 -7 8 -9 15 -5 15 4 0 1 7 -6 17 -8 9 -12 18 -11 20 6 8 -4 13 -11 7z"/>
 <path d="M2967 1084 c-4 -4 -3 -12 1 -18 4 -6 7 -14 8 -18 1 -5 3 -10 4 -13 1 -3 3 -9 4 -15 0 -5 4 -10 9 -10 4 0 10 0 13 0 4 0 1 7 -6 15 -7 8 -9 15 -5 15 4 0 1 7 -6 17 -8 9 -12 18 -11 20 6 8 -4 13 -11 7z"/>
 <path d="M190 1004 c-6 -15 -8 -35 -5 -43 6 -14 8 -13 21 3 16 23 18 52 4 61 -6 3 -15 -6 -20 -21z"/>
 <path d="M1527 994 c-4 -4 -3 -12 1 -18 4 -6 7 -14 8 -18 1 -5 3 -10 4 -13 1 -3 3 -9 4 -15 0 -5 4 -10 9 -10 4 0 10 0 13 0 4 0 1 7 -6 15 -7 8 -9 15 -5 15 4 0 1 7 -6 17 -8 9 -12 18 -11 20 6 8 -4 13 -11 7z"/>
 <path d="M3007 974 c-4 -4 -3 -12 1 -18 4 -6 7 -14 8 -18 1 -5 3 -10 4 -13 1 -3 4 -9 5 -15 1 -5 4 -12 5 -15 1 -3 3 -9 4 -15 0 -5 4 -10 9 -10 7 0 8 4 6 15 -1 3 -3 10 -4 15 -1 6 -4 12 -5 15 -1 3 -4 10 -5 15 -1 6 -4 12 -5 15 -1 3 -3 9 -4 14 -2 14 -12 22 -19 15z"/>
 <path d="M205 930 c-4 -6 -3 -16 3 -22 6 -6 12 -6 17 2 4 6 3 16 -3 22 -6 6 -12 6 -17 -2z"/>
 <path d="M1567 884 c-4 -4 -3 -12 1 -18 4 -6 7 -14 8 -18 1 -5 3 -10 4 -13 1 -3 3 -9 4 -15 0 -5 4 -10 9 -10 4 0 10 0 13 0 4 0 1 7 -6 15 -7 8 -9 15 -5 15 4 0 1 7 -6 17 -8 9 -12 18 -11 20 6 8 -4 13 -11 7z"/>
 <path d="M216 871 c-4 -5 -2 -12 3 -15 5 -4 12 -2 15 3 4 5 2 12 -3 15 -5 4 -12 2 -15 -3z"/>
 <path d="M226 831 c-4 -5 -2 -12 3 -15 5 -4 12 -2 15 3 4 5 2 12 -3 15 -5 4 -12 2 -15 -3z"/>
 <path d="M3057 834 c-4 -4 -3 -12 1 -18 4 -6 7 -14 8 -18 1 -5 3 -10 4 -13 1 -3 3 -9 4 -15 0 -5 4 -10 9 -10 4 0 10 0 13 0 4 0 1 7 -6 15 -7 8 -9 15 -5 15 4 0 1 7 -6 17 -8 9 -12 18 -11 20 6 8 -4 13 -11 7z"/>
 <path d="M246 771 c-4 -5 -2 -12 3 -15 5 -4 12 -2 15 3 4 5 2 12 -3 15 -5 4 -12 2 -15 -3z"/>
 <path d="M1607 774 c-4 -4 -3 -12 1 -18 4 -6 7 -14 8 -18 1 -5 3 -10 4 -13 1 -3 3 -9 4 -15 0 -5 4 -10 9 -10 4 0 10 0 13 0 4 0 1 7 -6 15 -7 8 -9 15 -5 15 4 0 1 7 -6 17 -8 9 -12 18 -11 20 6 8 -4 13 -11 7z"/>
 <path d="M3097 724 c-4 -4 -3 -12 1 -18 4 -6 7 -14 8 -18 1 -5 3 -10 4 -13 1 -3 3 -9 4 -15 0 -5 4 -10 9 -10 4 0 10 0 13 0 4 0 1 7 -6 15 -7 8 -9 15 -5 15 4 0 1 7 -6 17 -8 9 -12 18 -11 20 6 8 -4 13 -11 7z"/>
 <path d="M1006 678 c-9 -12 -16 -28 -16 -35 0 -8 -19 -33 -43 -56 -40 -40 -90 -70 -162 -97 -29 -11 -29 -12 -11 -26 14 -10 23 -11 33 -3 7 6 13 8 13 4 0 -4 7 -2 15 5 8 7 15 9 15 4 0 -4 9 2 21 15 12 12 27 20 35 17 7 -3 17 2 22 10 5 9 13 15 18 15 5 -1 9 3 9 8 0 12 14 26 26 26 5 0 8 3 7 7 -2 4 5 13 15 20 10 8 20 22 22 33 2 11 4 20 5 20 1 0 3 10 4 23 4 32 -10 37 -28 10z"/>
 <path d="M1646 661 c-4 -5 -2 -12 3 -15 5 -4 12 -2 15 3 4 5 2 12 -3 15 -5 4 -12 2 -15 -3z"/>
 <path d="M3136 611 c-4 -5 -1 -13 4 -16 8 -5 6 -13 -6 -26 -16 -18 -12 -55 5 -44 5 3 11 -7 13 -22 2 -16 8 -27 13 -25 14 3 13 77 -2 77 -6 0 -15 4 -20 9 -4 5 -3 6 4 2 14 -8 27 10 13 19 -6 4 -8 10 -5 15 3 5 1 11 -4 14 -5 4 -12 2 -15 -3z"/>
 <path d="M656 471 c-4 -5 -2 -12 3 -15 5 -4 12 -2 15 3 4 5 2 12 -3 15 -5 4 -12 2 -15 -3z"/>
 <path d="M726 472 c-3 -6 1 -15 8 -21 8 -7 17 -8 20 -3 3 6 -1 15 -8 21 -8 7 -17 8 -20 3z"/>
 <path d="M546 461 c-4 -5 -2 -12 3 -15 5 -4 12 -2 15 3 4 5 2 12 -3 15 -5 4 -12 2 -15 -3z"/>
 </g>
<g id="layer7" fill="#010101" stroke="none">
 <path d="M2589 1907 c-35 -44 -501 -1312 -507 -1380 -6 -66 1 -81 30 -65 13 7 28 12 33 13 6 0 12 11 13 24 2 13 50 150 107 305 56 154 158 432 225 616 68 184 124 337 126 339 2 2 6 2 9 -1 6 -5 158 -419 345 -933 91 -252 118 -315 142 -338 39 -37 58 -24 39 28 -7 19 -9 39 -6 45 5 9 -61 197 -385 1094 -73 201 -114 286 -138 286 -4 0 -19 -15 -33 -33z"/>
 <path d="M1126 1911 c-17 -19 -15 -27 47 -198 360 -987 440 -1200 455 -1216 29 -33 51 -40 59 -20 3 10 12 25 20 34 7 9 56 135 107 280 52 145 160 441 240 657 80 216 146 397 146 401 0 5 7 14 15 21 14 12 13 16 -6 37 -54 57 -73 24 -211 -370 l-10 -28 -325 3 -325 3 -64 175 c-35 96 -64 180 -64 187 0 12 -47 53 -60 53 -4 0 -15 -9 -24 -19z m809 -513 c-4 -38 -257 -742 -269 -750 -10 -7 -46 53 -46 76 0 10 -196 558 -235 659 l-15 37 284 0 284 0 -3 -22z"/>
 <path d="M3332 1907 l-22 -23 0 -692 0 -692 32 -20 c18 -11 36 -16 41 -11 4 4 8 326 8 714 0 779 -1 786 -59 724z"/>
 <path d="M459 1896 c-175 -62 -296 -216 -334 -429 -23 -127 -17 -519 9 -612 51 -182 163 -317 311 -375 112 -44 298 -30 418 31 94 48 168 149 148 202 -21 55 -52 44 -90 -34 -24 -50 -32 -57 -105 -94 l-79 -40 -121 0 c-143 0 -181 13 -263 91 -73 68 -118 148 -142 254 -30 126 -31 469 -1 584 37 147 115 259 217 313 118 63 230 64 359 4 80 -37 134 -87 172 -158 48 -90 57 -100 76 -84 12 10 15 23 10 50 -12 75 -29 107 -83 164 -133 140 -333 193 -502 133z"/>
 <path d="M3624 1178 c-3 -5 76 -234 177 -509 191 -522 201 -543 239 -503 16 18 371 971 374 1004 1 17 -50 22 -63 5 -5 -5 -30 -70 -56 -143 l-48 -132 -230 2 -229 3 -44 122 c-23 67 -47 131 -53 141 -11 20 -57 27 -67 10z m586 -363 c0 -11 -183 -520 -189 -527 -6 -7 -39 80 -157 410 l-44 122 195 0 c107 0 195 -2 195 -5z"/>
 <path d="M4680 1175 c-7 -8 -9 -176 -8 -521 l3 -509 210 0 c178 1 218 4 264 19 58 20 133 81 157 127 66 128 19 292 -105 366 -30 18 -59 34 -64 36 -6 2 42 103 106 225 64 123 117 229 117 236 0 22 -30 41 -46 30 -8 -5 -70 -112 -138 -239 l-124 -230 -156 -3 -156 -3 0 230 c0 233 -1 242 -37 247 -7 1 -17 -4 -23 -11z m450 -555 c90 -34 130 -93 130 -195 0 -105 -44 -169 -135 -194 -22 -6 -117 -11 -212 -11 l-173 0 0 211 0 211 178 -4 c109 -3 190 -10 212 -18z"/>
 <path d="M5952 1178 c-9 -9 -12 -130 -12 -485 l0 -473 -168 0 c-135 0 -172 -3 -190 -16 -29 -20 -28 -30 8 -49 24 -13 86 -15 392 -15 341 0 364 2 388 19 24 19 24 20 6 40 -18 20 -30 21 -193 21 l-173 0 0 473 c0 477 -1 497 -35 497 -6 0 -16 -5 -23 -12z"/>
 </g>

</svg>